<svg width="40" height="40" viewBox="0 0 64 64" fill="none" xmlns="http://www.w3.org/2000/svg">
  <defs>
    <linearGradient id="sg" x1="0" y1="0" x2="64" y2="64" gradientUnits="userSpaceOnUse">
      <stop stop-color="#67e8f9"/>
      <stop offset="0.5" stop-color="#22d3ee"/>
      <stop offset="1" stop-color="#a78bfa"/>
    </linearGradient>
  </defs>
  <rect x="18" y="18" width="28" height="28" rx="6" fill="url(#sg)"/>
  <rect x="24" y="24" width="16" height="16" rx="3" fill="#05060a"/>
  <g stroke="url(#sg)" stroke-width="3" stroke-linecap="round">
    <line x1="32" y1="6" x2="32" y2="16"/>
    <line x1="32" y1="48" x2="32" y2="58"/>
    <line x1="6" y1="32" x2="16" y2="32"/>
    <line x1="48" y1="32" x2="58" y2="32"/>
    <line x1="22" y1="8" x2="22" y2="16"/>
    <line x1="42" y1="8" x2="42" y2="16"/>
    <line x1="22" y1="48" x2="22" y2="56"/>
    <line x1="42" y1="48" x2="42" y2="56"/>
    <line x1="8" y1="22" x2="16" y2="22"/>
    <line x1="8" y1="42" x2="16" y2="42"/>
    <line x1="48" y1="22" x2="56" y2="22"/>
    <line x1="48" y1="42" x2="56" y2="42"/>
  </g>
  <circle cx="32" cy="32" r="3.5" fill="url(#sg)"/>
</svg>
